# File created by Blade
# Date/Time:  Wed Apr 08 14:10:35 2015
# Frame Rate: 120.000 fps
#------------------------------------------------------
:FULLY-SPECIFIED
:DEGREES
453
root 0.248691 49.905476 6.741786 26.894548 4.766467 2.778063
Spine 15.121061 -12.131444 -6.614555
Head -32.629557 -1.966843 -1.057074
LeftShoulder -17.402421 28.631382 36.580352
LeftArm 102.073504 -71.861872 -86.974121
LeftForeArm -2.655384 -0.000000 9.342634
LeftHand 20.861706 0.000000 39.945560
LeftHandThumb1 -26.253704 0.000000 33.147579
RightShoulder -6.220145 15.922442 -41.005228
RightArm 15.657361 36.484756 28.458929
RightForeArm -12.110710 -0.000000 37.593969
RightHand 16.571546 -0.000000 -24.027455
RightHandThumb1 -24.326973 -0.000000 -32.862282
LeftUpLeg -85.493231 60.214531 12.437907
LeftLeg -3.815735 -0.000000 0.000000
LeftFoot 17.331973 27.405535 -9.976506
LeftToeBase 20.210435 -0.000000 -0.000000
RightUpLeg -93.925960 -69.431446 -8.355667
RightLeg -13.052046 -0.000000 0.000000
RightFoot 41.256322 -19.614399 -18.059104
RightToeBase 25.982978 -0.000000 -0.000000
454
root 0.256260 49.790539 7.052066 26.142649 4.899239 2.808114
Spine 14.039125 -11.857292 -6.307576
Head -27.437713 -2.433705 -2.740373
LeftShoulder -15.714234 28.349868 36.324821
LeftArm 89.838269 -70.138635 -75.125131
LeftForeArm -2.506751 -0.000000 8.299598
LeftHand 20.714194 -0.000000 37.769345
LeftHandThumb1 -26.253704 0.000000 33.147579
RightShoulder -6.103580 15.904670 -40.350974
RightArm 17.045770 34.527277 29.288733
RightForeArm -11.860736 0.000000 36.737254
RightHand 16.698095 0.000000 -23.838747
RightHandThumb1 -24.326973 -0.000000 -32.862282
LeftUpLeg -79.656534 59.383063 16.703103
LeftLeg -2.974706 -0.000000 0.000000
LeftFoot 18.062138 28.218656 -10.222921
LeftToeBase 20.254189 -0.000000 -0.000000
RightUpLeg -84.765811 -69.476766 -15.231889
RightLeg -12.293422 -0.000000 0.000000
RightFoot 41.460595 -19.956854 -16.853385
RightToeBase 26.304683 -0.000000 -0.000000
455
root 0.264867 49.673008 7.380202 25.580101 5.014299 2.739651
Spine 12.425578 -11.584532 -5.793059
Head -21.403926 -2.554462 -4.634939
LeftShoulder -13.709995 28.101679 35.849926
LeftArm 79.317795 -67.571111 -64.731772
LeftForeArm -2.458376 -0.000000 6.998184
LeftHand 20.091129 -0.000000 34.868196
LeftHandThumb1 -26.253704 0.000000 33.147579
RightShoulder -5.957019 16.197318 -39.778164
RightArm 18.559064 32.153563 30.530672
RightForeArm -11.448510 -0.000000 35.866046
RightHand 16.989846 -0.000000 -22.653412
RightHandThumb1 -24.326973 -0.000000 -32.862282
LeftUpLeg -73.256063 58.066188 21.560316
LeftLeg -2.109662 -0.000000 0.000000
LeftFoot 18.615083 29.070419 -11.065126
LeftToeBase 20.543300 -0.000000 -0.000000
RightUpLeg -76.355199 -68.914235 -21.047582
RightLeg -11.458579 -0.000000 0.000000
RightFoot 41.540507 -20.320642 -15.116173
RightToeBase 26.727412 -0.000000 -0.000000
456
root 0.270676 49.555766 7.724486 25.157647 4.906427 2.718139
Spine 10.366642 -11.288411 -5.505589
Head -14.489733 -2.178538 -6.376107
LeftShoulder -11.666506 28.248683 35.282747
LeftArm 71.923135 -64.307380 -57.444208
LeftForeArm -2.908132 -0.000000 5.597348
LeftHand 19.636898 -0.000000 32.478377
LeftHandThumb1 -26.253704 0.000000 33.147579
RightShoulder -5.459477 16.789150 -39.068785
RightArm 19.734616 29.327481 31.876753
RightForeArm -11.014093 -0.000000 34.948051
RightHand 17.512756 -0.000000 -21.848646
RightHandThumb1 -24.326973 -0.000000 -32.862282
LeftUpLeg -67.145106 56.380424 25.733732
LeftLeg -1.434894 -0.000000 0.000000
LeftFoot 19.167616 29.811730 -12.295241
LeftToeBase 20.538595 -0.000000 -0.000000
RightUpLeg -68.605648 -67.698473 -26.108803
RightLeg -10.708964 -0.000000 0.000000
RightFoot 41.548807 -20.818699 -12.894329
RightToeBase 26.901587 -0.000000 -0.000000
457
root 0.274229 49.429779 8.098072 24.807578 4.730116 2.550587
Spine 7.972138 -11.127273 -5.116135
Head -7.038800 -1.213328 -8.000568
LeftShoulder -9.785513 28.798895 34.432108
LeftArm 67.324930 -60.808896 -52.959365
LeftForeArm -3.602601 -0.000000 4.094170
LeftHand 18.836959 -0.000000 29.745750
LeftHandThumb1 -26.253704 0.000000 33.147579
RightShoulder -4.639746 17.530154 -38.211140
RightArm 20.649651 26.455401 33.420321
RightForeArm -11.025806 -0.000000 34.338376
RightHand 17.913376 0.000000 -20.550666
RightHandThumb1 -24.326973 -0.000000 -32.862282
LeftUpLeg -61.582853 54.502802 29.196494
LeftLeg -0.946736 -0.000000 0.000000
LeftFoot 19.418219 30.481599 -14.553372
LeftToeBase 20.745880 -0.000000 -0.000000
RightUpLeg -62.446488 -66.086154 -29.272274
RightLeg -9.892311 -0.000000 0.000000
RightFoot 41.389444 -20.930821 -10.781670
RightToeBase 26.841556 -0.000000 -0.000000
